<?xml version="1.0"?>
<svg xmlns="http://www.w3.org/2000/svg" xmlns:xlink="http://www.w3.org/1999/xlink" xmlns:svgjs="http://svgjs.com/svgjs" version="1.1" width="512" height="512" x="0" y="0" viewBox="0 0 128 128" style="enable-background:new 0 0 512 512" xml:space="preserve"><g><path xmlns="http://www.w3.org/2000/svg" d="m54.3 71.33a2.57 2.57 0 0 0 2 .85 4.34 4.34 0 0 0 .71-.06 6.43 6.43 0 0 0 2.88-1.44 5.65 5.65 0 0 0 2.15-3.57 2.47 2.47 0 0 0 -.53-1.84 2.79 2.79 0 0 0 -2.74-.79 6.52 6.52 0 0 0 -2.87 1.43 6.42 6.42 0 0 0 -1.9 2.58 2.81 2.81 0 0 0 .3 2.84zm1.58-2.14a4.59 4.59 0 0 1 1.33-1.74 4.44 4.44 0 0 1 1.95-1 2.76 2.76 0 0 1 .37 0 .64.64 0 0 1 .48.15.54.54 0 0 1 .07.37 3.74 3.74 0 0 1 -1.44 2.22 4.52 4.52 0 0 1 -2 1c-.45.08-.75 0-.84-.11s-.08-.45.08-.89z" fill="#f9aa33" data-original="#000000" style=""/><path xmlns="http://www.w3.org/2000/svg" d="m20.14 76.44h.18a1 1 0 0 0 .8-1.17 60.15 60.15 0 0 1 -1-10.82 1 1 0 0 0 -2 0 61.43 61.43 0 0 0 1 11.18 1 1 0 0 0 1.02.81z" fill="#f9aa33" data-original="#000000" style=""/><path xmlns="http://www.w3.org/2000/svg" d="m20.66 78a1 1 0 0 0 -.73 1.21c.38 1.56.83 3.1 1.33 4.6a1 1 0 0 0 .95.68 1.19 1.19 0 0 0 .32-.05 1 1 0 0 0 .63-1.27c-.48-1.44-.92-2.93-1.29-4.44a1 1 0 0 0 -1.21-.73z" fill="#f9aa33" data-original="#000000" style=""/><path xmlns="http://www.w3.org/2000/svg" d="m22.6 86.65a1 1 0 0 0 .21 1.09 1.15 1.15 0 0 0 .33.21 1 1 0 0 0 1.09-.21 1.15 1.15 0 0 0 .21-.33.94.94 0 0 0 0-.76 1.15 1.15 0 0 0 -.21-.33 1 1 0 0 0 -1.42 0 1.15 1.15 0 0 0 -.21.33z" fill="#f9aa33" data-original="#000000" style=""/><path xmlns="http://www.w3.org/2000/svg" d="m109.54 56.18c0-.54 0-1.09 0-1.64 0-.18 0-.36 0-.53a1.24 1.24 0 0 0 .21-.33 14.35 14.35 0 0 0 -12.18-19.18c-1-8-8.2-9.35-12.23-9.44a6.88 6.88 0 0 0 -1.66-4.06 6.85 6.85 0 0 0 -5.31-2 1 1 0 0 0 -.76.34 1 1 0 0 0 -.23.8 3.13 3.13 0 0 1 -.81 2.16c-1 1.18-3.29 2.63-8.72 2.85-5.8.23-6.67 3.16-6.78 4.9a15.43 15.43 0 0 0 -5.5-1 15.81 15.81 0 0 0 -14.69 9.89 11.12 11.12 0 0 0 -15.69 10.06 11 11 0 0 0 .8 4.08 1.43 1.43 0 0 0 0 .22v.41.82c0 .92 0 1.85.08 2.78h-12.19a1 1 0 0 0 -1 1v6.12a61.09 61.09 0 0 0 4.45 23l5 12.27h-19.22a2.62 2.62 0 0 0 0 5.23h1.45a5.35 5.35 0 0 1 4.58 2.55 3.45 3.45 0 0 0 2.93 1.62h41.46a3.42 3.42 0 0 0 2.92-1.62 5.38 5.38 0 0 1 4.55-2.57h1.44a2.62 2.62 0 1 0 0-5.23h-6a49.94 49.94 0 0 1 -10.44-6.68l2.27-5.54c.67-1.62 1.25-3.29 1.77-5a35 35 0 0 1 5.4-3.86c4.33-2.78 9.25-5.88 10.56-10.6.93-3.43-.13-5.17-1.17-6-2.64-2.16-7.87-1-12.1.82v-4.5a1 1 0 0 0 -1-1h-23.73c-.05-.93-.08-1.86-.08-2.78v-.2h79.65v.2a50.17 50.17 0 0 1 -28.57 45.14h-10.89a1 1 0 0 0 0 2h42.81a.62.62 0 0 1 0 1.23h-1.44a7.35 7.35 0 0 0 -6.29 3.49 1.41 1.41 0 0 1 -1.22.68h-40.64a1 1 0 0 0 0 2h40.67a3.44 3.44 0 0 0 2.92-1.62 5.36 5.36 0 0 1 4.59-2.55h1.44a2.62 2.62 0 0 0 0-5.23h-27.64a52.12 52.12 0 0 0 6.52-4.41 56.61 56.61 0 0 1 6-1.48 54.67 54.67 0 0 0 18.39-6.73c10.94-6.44 16.13-17.35 11.81-24.83-2.84-4.86-9.03-7.11-16.49-6.05zm-46.44 46.12a.62.62 0 0 1 -.62.61h-1.48a7.32 7.32 0 0 0 -6.28 3.49 1.48 1.48 0 0 1 -1.23.68h-41.42a1.44 1.44 0 0 1 -1.23-.68 7.35 7.35 0 0 0 -6.28-3.49h-1.45a.62.62 0 0 1 0-1.23h59.37a.62.62 0 0 1 .62.62zm-10.9-2.62h-9l2-4.8a52.59 52.59 0 0 0 7 4.8zm11.35-36.21c.86.7 1 2 .51 4-1.09 4-5.66 6.9-9.69 9.45-1.2.75-2.37 1.49-3.42 2.23a61.07 61.07 0 0 0 1.75-14.21c4.68-2.21 9.18-2.84 10.85-1.47zm-12.83.84v.13a58.92 58.92 0 0 1 -4.31 22.21l-5.34 13h-16.54l-5.35-13a59.11 59.11 0 0 1 -4.3-22.21v-5.12h35.84zm-22.88-12a9.09 9.09 0 0 1 12.56-11.44c0 2.13 1.22 5.47 5.88 6.52a.83.83 0 0 0 .22 0 1 1 0 0 0 .22-2c-4.4-1-4.36-4.25-4.3-4.94a13.79 13.79 0 0 1 13.15-9.45 13.52 13.52 0 0 1 5.94 1.36 1 1 0 0 0 .54.09c1.05-.11 1-1.24 1-1.66 0-1.31-.08-3.5 4.87-3.7s8.38-1.39 10.18-3.56a5.35 5.35 0 0 0 1.21-2.53 4.45 4.45 0 0 1 2.88 1.32 5.41 5.41 0 0 1 1.17 3.68 1 1 0 0 0 .27.78 1.18 1.18 0 0 0 .75.32c8.85-.28 11 4.46 11.28 8.44a1 1 0 0 0 1 .94 12.29 12.29 0 0 1 11.46 15.89zm79.87 15.89a5.6 5.6 0 0 0 5.28-5c3 .07 5.28 1.1 6.32 2.91s.82 4.37-.72 7.09a23.43 23.43 0 0 1 -18.18 10.74 52.21 52.21 0 0 0 7.3-15.74zm5.46 17.13a52.79 52.79 0 0 1 -17.78 6.5l-2.13.46a52.7 52.7 0 0 0 5.74-6.41c.37 0 .73.06 1.11.06a25.44 25.44 0 0 0 20.23-11.77c1.9-3.37 2.16-6.59.72-9.08-1.54-2.66-4.85-4.08-9.11-3.9a1 1 0 0 0 -1 1.1v.18.15a3.59 3.59 0 0 1 -2.78 3.5 51.91 51.91 0 0 0 1.19-7.9c6.77-1.08 12.41.8 14.83 5 3.81 6.42-1.19 16.34-11.02 22.11z" fill="#f9aa33" data-original="#000000" style=""/><path xmlns="http://www.w3.org/2000/svg" d="m67.91 35.77h1.56c3.51 0 11.87-.52 14.41-5.23a1 1 0 1 0 -1.76-.95c-2.12 4-10.9 4.41-14.12 4.18a1 1 0 0 0 -1.06.94 1 1 0 0 0 .97 1.06z" fill="#f9aa33" data-original="#000000" style=""/><path xmlns="http://www.w3.org/2000/svg" d="m85.27 40.12c-1.33.29-2.71.65-4.1 1.08s-2.84.95-4.4 1.52c-6.43 2.31-14.44 5.19-24.3 4.14a1 1 0 0 0 -1.1.89 1 1 0 0 0 .89 1.1 42.3 42.3 0 0 0 4.43.23c8.28 0 15.11-2.45 20.76-4.48 1.54-.56 3-1.08 4.31-1.49s2.66-.76 3.93-1a1 1 0 1 0 -.42-2z" fill="#f9aa33" data-original="#000000" style=""/><path xmlns="http://www.w3.org/2000/svg" d="m91.39 39.27q-.81 0-1.8.15a1 1 0 0 0 .11 2h.11c.61-.07 1.18-.11 1.68-.14a1 1 0 0 0 -.1-2z" fill="#f9aa33" data-original="#000000" style=""/><path xmlns="http://www.w3.org/2000/svg" d="m93.9 79.75a1 1 0 0 0 .84-.45c.39-.62.77-1.24 1.14-1.87a1 1 0 0 0 -1.73-1c-.35.6-.72 1.2-1.09 1.78a1 1 0 0 0 .3 1.38 1 1 0 0 0 .54.16z" fill="#f9aa33" data-original="#000000" style=""/><path xmlns="http://www.w3.org/2000/svg" d="m82.24 92.38a47.8 47.8 0 0 0 9.66-9.13 1 1 0 1 0 -1.57-1.25 45.7 45.7 0 0 1 -9.25 8.75 1 1 0 0 0 -.23 1.39 1 1 0 0 0 .81.42 1 1 0 0 0 .58-.18z" fill="#f9aa33" data-original="#000000" style=""/></g></svg>
