<?xml version="1.0" encoding="iso-8859-1"?>
<!-- Generator: Adobe Illustrator 19.0.0, SVG Export Plug-In . SVG Version: 6.00 Build 0)  -->
<svg version="1.1" id="Capa_1" xmlns="http://www.w3.org/2000/svg" xmlns:xlink="http://www.w3.org/1999/xlink" x="0px" y="0px"
	 viewBox="0 0 484.097 484.097" style="enable-background:new 0 0 484.097 484.097;" xml:space="preserve">
<g>
	<g>
		<path d="M338.618,134.104c0-0.002-0.001-0.004-0.002-0.006l-8-29.48c-0.585-2.132-2.788-3.385-4.92-2.8
			c-2.132,0.585-3.385,2.788-2.8,4.92l7.88,29.36c0.498,1.781,2.152,2.988,4,2.92h1.04
			C337.947,138.435,339.202,136.235,338.618,134.104z"/>
	</g>
</g>
<g>
	<g>
		<path d="M131.792,137.992c-0.005-0.018-0.01-0.036-0.015-0.053c-0.602-2.117-2.8-3.35-4.92-2.76l-20.8,5.64
			c-2.209,0.298-3.758,2.331-3.46,4.54c0.298,2.209,2.331,3.758,4.54,3.46l-0.08-0.16c0.346,0.039,0.694,0.039,1.04,0l20.88-5.76
			C131.109,142.321,132.369,140.124,131.792,137.992z"/>
	</g>
</g>
<g>
	<g>
		<path d="M86.177,150.499c-0.585-2.132-2.788-3.385-4.92-2.8l-33.04,9.12c-10.397,2.863-16.528,13.588-13.72,24l8.68,31.44
			c0.498,1.781,2.152,2.988,4,2.92c0.359,0.039,0.721,0.039,1.08,0c2.131-0.583,3.385-2.784,2.802-4.914
			c0-0.002-0.001-0.004-0.002-0.006l-9-31.44c-0.776-2.981-0.329-6.149,1.24-8.8c1.555-2.664,4.076-4.626,7.04-5.48l33.04-9.12
			C85.509,154.833,86.762,152.631,86.177,150.499z"/>
	</g>
</g>
<g>
	<g>
		<path d="M209.697,348.019h-38.24c-2.209,0-4,1.791-4,4c0,2.209,1.791,4,4,4h38.24c2.209,0,4-1.791,4-4
			C213.697,349.81,211.906,348.019,209.697,348.019z"/>
	</g>
</g>
<g>
	<g>
		<path d="M249.737,372.459h-78.28c-2.209,0-4,1.791-4,4c0,2.209,1.791,4,4,4h78.28c2.209,0,4-1.791,4-4
			C253.737,374.25,251.946,372.459,249.737,372.459z"/>
	</g>
</g>
<g>
	<g>
		<path d="M455.177,183.579h-72.28l-30.4-109.88c-4.348-15.322-20.253-24.257-35.6-20l-295.64,81.6
			C5.84,139.557-3.206,155.507,1.053,170.924c0.001,0.005,0.003,0.01,0.004,0.015l50.68,183.08c3.492,12.573,14.951,21.266,28,21.24
			c2.609,0.009,5.206-0.341,7.72-1.04l32-8.88v37.16c0.022,15.985,12.975,28.938,28.96,28.96h306.76
			c15.979-0.022,28.92-12.981,28.92-28.96v-190C484.097,196.527,471.149,183.579,455.177,183.579z M119.457,357.139l-34.24,9.48
			c-11.143,3.068-22.668-3.463-25.76-14.6l-50.68-183.2c-1.492-5.356-0.787-11.086,1.96-15.92c2.716-4.857,7.271-8.418,12.64-9.88
			l295.64-81.8c5.386-1.503,11.15-0.782,16,2c4.845,2.72,8.391,7.276,9.84,12.64l29.84,107.72h-226.28
			c-15.979,0-28.938,12.941-28.96,28.92V357.139z M476.097,402.619c0,11.56-9.36,20.938-20.92,20.96h-306.76
			c-11.567-0.022-20.938-9.393-20.96-20.96v-91.04h348.64V402.619z M476.097,303.579h-348.64v-51.08h348.64V303.579z
			 M476.097,244.499h-348.64v-32c0.022-11.56,9.4-20.92,20.96-20.92h306.76c11.545,0.022,20.898,9.375,20.92,20.92V244.499z"/>
	</g>
</g>
<g>
</g>
<g>
</g>
<g>
</g>
<g>
</g>
<g>
</g>
<g>
</g>
<g>
</g>
<g>
</g>
<g>
</g>
<g>
</g>
<g>
</g>
<g>
</g>
<g>
</g>
<g>
</g>
<g>
</g>
</svg>
