<?xml version="1.0" encoding="iso-8859-1"?>
<!-- Generator: Adobe Illustrator 19.0.0, SVG Export Plug-In . SVG Version: 6.00 Build 0)  -->
<svg version="1.1" id="Capa_1" xmlns="http://www.w3.org/2000/svg" xmlns:xlink="http://www.w3.org/1999/xlink" x="0px" y="0px"
	 viewBox="0 0 479.051 479.051" style="enable-background:new 0 0 479.051 479.051;" xml:space="preserve">
<g>
	<g>
		<path d="M364.131,423.687h-23.52c-2.209,0-4,1.791-4,4c0,2.209,1.791,4,4,4h23.52c2.209,0,4-1.791,4-4
			C368.131,425.477,366.34,423.687,364.131,423.687z"/>
	</g>
</g>
<g>
	<g>
		<path d="M376.291,265.487h-23.48c-2.209,0-4,1.791-4,4c0,2.209,1.791,4,4,4h23.48c2.209,0,4-1.791,4-4
			C380.291,267.277,378.5,265.487,376.291,265.487z"/>
	</g>
</g>
<g>
	<g>
		<path d="M423.411,265.487h-23.6c-2.209,0-4,1.791-4,4c0,2.209,1.791,4,4,4h23.6c2.209,0,4-1.791,4-4
			C427.411,267.277,425.62,265.487,423.411,265.487z"/>
	</g>
</g>
<g>
	<g>
		<path d="M411.171,423.687h-23.52c-2.209,0-4,1.791-4,4c0,2.209,1.791,4,4,4h23.52c2.209,0,4-1.791,4-4
			C415.171,425.477,413.38,423.687,411.171,423.687z"/>
	</g>
</g>
<g>
	<g>
		<path d="M474.811,291.687c-2.209,0-4,1.791-4,4v23.52c0,2.209,1.791,4,4,4c2.209,0,4-1.791,4-4v-23.52
			C478.811,293.477,477.02,291.687,474.811,291.687z"/>
	</g>
</g>
<g>
	<g>
		<path d="M270.051,423.687h-23.52c-2.209,0-4,1.791-4,4c0,2.209,1.791,4,4,4h23.52c2.209,0,4-1.791,4-4
			C274.051,425.477,272.26,423.687,270.051,423.687z"/>
	</g>
</g>
<g>
	<g>
		<path d="M223.011,423.687h-23.6c-2.209,0-4,1.791-4,4c0,2.209,1.791,4,4,4h23.6c2.209,0,4-1.791,4-4
			C227.011,425.477,225.22,423.687,223.011,423.687z"/>
	</g>
</g>
<g>
	<g>
		<path d="M282.251,265.487h-23.52c-2.209,0-4,1.791-4,4c0,2.209,1.791,4,4,4h23.52c2.209,0,4-1.791,4-4
			C286.251,267.277,284.46,265.487,282.251,265.487z"/>
	</g>
</g>
<g>
	<g>
		<path d="M474.811,338.766c-2.209,0-4,1.791-4,4v23.52c0,2.209,1.791,4,4,4c2.209,0,4-1.791,4-4v-23.52
			C478.811,340.557,477.02,338.766,474.811,338.766z"/>
	</g>
</g>
<g>
	<g>
		<path d="M317.091,423.687h-23.52c-2.209,0-4,1.791-4,4c0,2.209,1.791,4,4,4h23.52c2.209,0,4-1.791,4-4
			C321.091,425.477,319.3,423.687,317.091,423.687z"/>
	</g>
</g>
<g>
	<g>
		<path d="M458.371,423.687h-23.48c-2.206-0.11-4.085,1.589-4.195,3.795c-0.003,0.068-0.005,0.137-0.005,0.205c0,2.209,1.791,4,4,4
			h23.68c2.209,0,4-1.791,4-4C462.371,425.477,460.58,423.687,458.371,423.687z"/>
	</g>
</g>
<g>
	<g>
		<path d="M475.018,385.759c-0.069,0.001-0.138,0.003-0.207,0.007c-2.209,0-4,1.791-4,4v21.16c0.039,0.599,0.039,1.201,0,1.8
			c-0.309,2.187,1.213,4.21,3.4,4.52h0.6c2.008,0.02,3.719-1.452,4-3.44c0.161-0.965,0.241-1.942,0.24-2.92v-21.16
			C479.033,387.517,477.227,385.741,475.018,385.759z"/>
	</g>
</g>
<g>
	<g>
		<path d="M471.971,270.806c-3.777-3.43-8.698-5.328-13.8-5.32h-11.32c-2.209,0-4,1.791-4,4c0,2.209,1.791,4,4,4h11.32
			c3.117,0.003,6.122,1.156,8.44,3.24c0.734,0.667,1.689,1.037,2.68,1.04c1.129-0.003,2.204-0.482,2.96-1.32
			C473.727,274.81,473.602,272.288,471.971,270.806z"/>
	</g>
</g>
<g>
	<g>
		<path d="M329.291,265.487h-23.52c-2.209,0-4,1.791-4,4c0,2.209,1.791,4,4,4h23.52c2.209,0,4-1.791,4-4
			S331.5,265.487,329.291,265.487z"/>
	</g>
</g>
<g>
	<g>
		<path d="M148.171,326.646c-2.209,0-4,1.791-4,4v23.52c0,2.209,1.791,4,4,4c2.209,0,4-1.791,4-4v-23.52
			C152.171,328.437,150.38,326.646,148.171,326.646z"/>
	</g>
</g>
<g>
	<g>
		<path d="M176.011,423.687h-11.24c-3.138,0.008-6.164-1.163-8.48-3.28c-1.527-1.596-4.06-1.652-5.655-0.124
			c-1.596,1.527-1.652,4.06-0.124,5.656c0.119,0.124,0.246,0.241,0.38,0.349c3.785,3.478,8.74,5.406,13.88,5.4h11.24
			c2.209,0,4-1.791,4-4C180.011,425.477,178.22,423.687,176.011,423.687z"/>
	</g>
</g>
<g>
	<g>
		<path d="M148.171,373.687c-2.209,0-4,1.791-4,4v23.52c0,2.209,1.791,4,4,4c2.209,0,4-1.791,4-4v-23.52
			C152.171,375.477,150.38,373.687,148.171,373.687z"/>
	</g>
</g>
<g>
	<g>
		<path d="M188.171,265.487h-23.52c-2.209,0-4,1.791-4,4c0,2.209,1.791,4,4,4h23.4c2.208,0.066,4.052-1.67,4.118-3.878
			c0.001-0.041,0.002-0.081,0.002-0.122C192.171,267.277,190.38,265.487,188.171,265.487z"/>
	</g>
</g>
<g>
	<g>
		<path d="M148.771,279.646c-2.209-0.331-4.269,1.191-4.6,3.4c-0.128,1.008-0.194,2.024-0.2,3.04v21.04
			c-0.003,2.209,1.786,4.002,3.995,4.005c0.068,0,0.137-0.002,0.205-0.005c2.209,0,4-1.791,4-4v-21.04
			c-0.041-0.613-0.041-1.227,0-1.84C152.502,282.037,150.98,279.978,148.771,279.646z"/>
	</g>
</g>
<g>
	<g>
		<path d="M415.531,313.327c-1.568-1.568-4.112-1.568-5.68,0l-70.44,70.36c-1.591,1.533-1.637,4.065-0.104,5.656
			c0.034,0.035,0.069,0.07,0.104,0.104c1.556,1.568,4.088,1.579,5.657,0.023c0.008-0.008,0.016-0.015,0.023-0.023l70.44-70.44
			C417.099,317.438,417.099,314.895,415.531,313.327z"/>
	</g>
</g>
<g>
	<g>
		<path d="M408.731,355.607c-9.323-0.022-16.898,7.517-16.92,16.84c-0.022,9.323,7.517,16.898,16.84,16.92c0.013,0,0.027,0,0.04,0
			c9.307,0,16.858-7.533,16.88-16.84C425.593,363.204,418.053,355.629,408.731,355.607z M408.691,381.367
			c-4.882-0.022-8.822-3.998-8.8-8.88s3.998-8.822,8.88-8.8c4.866,0.022,8.8,3.973,8.8,8.84
			C417.549,377.415,413.58,381.367,408.691,381.367z"/>
	</g>
</g>
<g>
	<g>
		<path d="M352.251,305.966c-9.3,0-16.84,7.54-16.84,16.84s7.54,16.84,16.84,16.84s16.84-7.539,16.84-16.84
			S361.551,305.966,352.251,305.966z M352.251,331.646c-4.882,0-8.84-3.958-8.84-8.84c0-4.882,3.957-8.84,8.839-8.841
			c0.04,0,0.081,0,0.121,0.001h-0.12c4.882,0,8.84,3.958,8.84,8.84S357.133,331.646,352.251,331.646z"/>
	</g>
</g>
<g>
	<g>
		<path d="M193.651,295.327c-2.209,0-4,1.791-4,4v52.68c0,2.209,1.791,4,4,4c2.209,0,4-1.791,4-4v-52.68
			C197.651,297.117,195.86,295.327,193.651,295.327z"/>
	</g>
</g>
<g>
	<g>
		<path d="M193.651,372.607c-2.209,0-4,1.791-4,4v22.84c0,2.209,1.791,4,4,4c2.209,0,4-1.791,4-4v-22.84
			C197.651,374.397,195.86,372.607,193.651,372.607z"/>
	</g>
</g>
<g>
	<g>
		<path d="M84.445,196.239c-1.303-5.76-4.878-10.748-9.914-13.832l-0.04-0.04c-10.227-6.396-23.702-3.291-30.098,6.936
			c-3.09,4.941-4.077,10.912-2.742,16.584c1.278,5.72,4.793,10.69,9.76,13.8c3.462,2.14,7.45,3.275,11.52,3.28
			c1.682-0.006,3.358-0.194,5-0.56C79.717,219.741,87.111,208.025,84.445,196.239z M74.691,208.247
			c-4.052,6.481-12.582,8.466-19.08,4.44c-3.117-1.951-5.332-5.058-6.16-8.64c-1.723-7.454,2.911-14.896,10.36-16.64
			c1.036-0.24,2.096-0.361,3.16-0.36c7.666,0.04,13.847,6.287,13.807,13.953C76.764,203.561,76.042,206.07,74.691,208.247z"/>
	</g>
</g>
<g>
	<g>
		<path d="M138.376,88.529c-10.315-6.253-23.745-2.96-29.998,7.355c-2.914,4.808-3.862,10.554-2.647,16.043
			c1.322,5.648,4.833,10.54,9.76,13.6c10.24,6.372,23.706,3.238,30.08-7h0.16C151.984,108.212,148.691,94.781,138.376,88.529z
			 M138.951,114.067c-4.032,6.495-12.565,8.492-19.06,4.46c-3.145-1.91-5.382-5.013-6.2-8.6c-1.723-7.454,2.911-14.896,10.36-16.64
			c1.037-0.238,2.096-0.359,3.16-0.36c2.573,0.003,5.094,0.724,7.28,2.08C140.986,99.038,142.983,107.572,138.951,114.067z"/>
	</g>
</g>
<g>
	<g>
		<path d="M182.7,196.073c-0.768-3.341-2.827-6.241-5.729-8.067c-6.064-3.778-14.042-1.924-17.82,4.14
			c-3.778,6.064-1.924,14.042,4.14,17.82h-0.12c2.046,1.293,4.42,1.973,6.84,1.96c0.995-0.01,1.986-0.117,2.96-0.32
			C179.947,210.004,184.302,203.049,182.7,196.073z M174.232,201.733c-0.007,0.011-0.014,0.022-0.021,0.034
			c-0.705,1.103-1.808,1.891-3.08,2.2c-1.275,0.313-2.623,0.081-3.72-0.64c-1.109-0.68-1.901-1.774-2.2-3.04
			c-0.333-1.321-0.116-2.721,0.6-3.88c0.692-1.115,1.801-1.907,3.08-2.2c0.372-0.053,0.749-0.053,1.12,0
			c0.92,0.011,1.819,0.274,2.6,0.76C174.927,196.387,175.653,199.417,174.232,201.733z"/>
	</g>
</g>
<g>
	<g>
		<path d="M327.011,222.767l-140.76-42.2l-31.08-45.72c2.133-2.166,4.011-4.568,5.6-7.16c11.488-18.542,5.818-42.882-12.68-54.44
			c-9.296-5.76-20.563-7.411-31.12-4.56l-7.44-18.48c-0.64-2.114-2.873-3.31-4.987-2.67c-2.114,0.64-3.31,2.873-2.669,4.987
			c0.067,0.221,0.153,0.436,0.257,0.642l7.36,18.52c-19.507,9.742-27.422,33.453-17.68,52.96c6.684,13.384,20.36,21.84,35.32,21.84
			c1.4,0,2.84,0,4.24-0.24l7.56,30.08l-37.08,10.28c-0.657,0.206-1.249,0.578-1.72,1.08c-2.955-8.451-8.715-15.636-16.32-20.36
			c-18.552-11.481-42.896-5.793-54.44,12.72c-3.863,6.164-5.928,13.285-5.96,20.56l-19.72,1.52c-2.196,0.17-3.841,2.083-3.68,4.28
			c0.147,2.099,1.896,3.725,4,3.72h0.32l20-1.52c2.093,10.741,8.555,20.129,17.84,25.92c18.41,11.559,42.705,6.006,54.264-12.404
			c1.72-2.739,3.096-5.68,4.096-8.756h0.36l57.6,7.24l49.24,48.72c0,2.209,1.791,4,4,4h23.68c1.31-0.033,2.52-0.706,3.24-1.8
			c0.745,1.102,1.99,1.762,3.32,1.76c0.798,0.002,1.578-0.235,2.24-0.68c1.833-1.233,2.319-3.719,1.086-5.552
			c-0.002-0.003-0.004-0.005-0.006-0.008l-25.68-37.36l103.24,12.88h1.28c5.589-0.039,10.088-4.602,10.049-10.191
			C334.149,227.95,331.245,224.057,327.011,222.767z M89.7,217.552c-0.003,0.005-0.006,0.009-0.009,0.014h0.16
			c-9.157,14.805-28.581,19.384-43.387,10.228c-0.058-0.036-0.116-0.072-0.173-0.108c-14.785-9.189-19.323-28.623-10.134-43.409
			s28.623-19.323,43.409-10.134C94.351,183.332,98.888,202.767,89.7,217.552z M110.531,133.767
			c-14.769-9.214-19.273-28.657-10.058-43.426c9.214-14.769,28.657-19.273,43.426-10.058c14.761,9.209,19.269,28.636,10.072,43.405
			c-1.966,3.077-4.457,5.785-7.36,8l-7.2,4.36C129.981,139.997,119.224,139.148,110.531,133.767z M102.291,205.567
			c0.447-3.754,0.353-7.553-0.28-11.28c0.332,0.128,0.684,0.196,1.04,0.2c0.358,0.058,0.722,0.058,1.08,0l36.92-10.24l6.2,24.68
			c0.187,0.7,0.56,1.336,1.08,1.84l0.84,0.84L102.291,205.567z M234.251,265.487h-18.84l-60.84-59.76l-15.16-60.44l4-2.32
			c1.917-0.867,3.763-1.883,5.52-3.04L234.251,265.487z M326.011,233.767c-0.478,0.606-1.233,0.923-2,0.84l-110.4-13.72
			l-20.24-29.84l131.36,39.44c0.56,0.187,1.021,0.59,1.28,1.12C326.414,232.27,326.414,233.103,326.011,233.767z"/>
	</g>
</g>
<g>
	<g>
		<path d="M296.131,374.687h-64.72c-2.209,0-4,1.791-4,4c0,2.209,1.791,4,4,4h64.72c2.209,0,4-1.791,4-4
			C300.131,376.477,298.34,374.687,296.131,374.687z"/>
	</g>
</g>
<g>
	<g>
		<path d="M280.491,347.887h-49.08c-2.209,0-4,1.791-4,4c0,2.209,1.791,4,4,4h49.08c2.209,0,4-1.791,4-4
			C284.491,349.677,282.7,347.887,280.491,347.887z"/>
	</g>
</g>
<g>
	<g>
		<path d="M302.811,321.086h-71.4c-2.209,0-4,1.791-4,4c0,2.209,1.791,4,4,4h71.4c2.209,0,4-1.791,4-4
			C306.811,322.877,305.02,321.086,302.811,321.086z"/>
	</g>
</g>
<g>
</g>
<g>
</g>
<g>
</g>
<g>
</g>
<g>
</g>
<g>
</g>
<g>
</g>
<g>
</g>
<g>
</g>
<g>
</g>
<g>
</g>
<g>
</g>
<g>
</g>
<g>
</g>
<g>
</g>
</svg>
