<svg id="Capa_1" data-name="Capa 1" xmlns="http://www.w3.org/2000/svg" width="200" height="160.83032" viewBox="0 0 200 160.83032"><title>gifts</title><path d="M157.87455,151.77691a44.04688,44.04688,0,0,1-13.079-4.5237,1.89273,1.89273,0,1,0-2.21263,3.07148,1.85065,1.85065,0,0,0,.16845.10836,46.60591,46.60591,0,0,0,14.47962,5.0726l.32177.05678a1.89959,1.89959,0,0,0,.32177-3.78552Z" transform="translate(-111.33157 -130.91621)"/><path d="M210.22829,149.07026a1.92116,1.92116,0,0,0-2.68771-.39748,27.0673,27.0673,0,0,1-8.631,3.50161,1.89269,1.89269,0,0,0-1.48109,2.22967l.00473.02271a1.8925,1.8925,0,0,0,1.89276,1.49529,1.43411,1.43411,0,0,0,.39748,0,30.81449,30.81449,0,0,0,10.10734-4.16408A1.92109,1.92109,0,0,0,210.22829,149.07026Z" transform="translate(-111.33157 -130.91621)"/><path d="M218.74572,142.29418a1.89268,1.89268,0,0,0-2.656-.3317l-.01278.00994-2.11989,1.6467a1.88917,1.88917,0,1,0,2.30917,2.99056l2.13883-1.66563A1.893,1.893,0,0,0,218.74572,142.29418Z" transform="translate(-111.33157 -130.91621)"/><path d="M287.68,171.632l-8.97168-11.0348a1.89276,1.89276,0,0,0-2.93377,2.38488l8.97168,11.03479A1.89041,1.89041,0,0,0,287.68,171.632Z" transform="translate(-111.33157 -130.91621)"/><path d="M294.4055,166.16993l-.00615-.00757-8.97168-11.01586a1.89043,1.89043,0,0,0-2.93994,2.37731l.00615.00757,8.97168,11.01586a1.89043,1.89043,0,0,0,2.93994-2.37731Z" transform="translate(-111.33157 -130.91621)"/><path d="M271.15625,197.58171a15.138,15.138,0,0,0,1.306-5.79185,9.59577,9.59577,0,0,1,2.76343,1.34386,1.853,1.853,0,0,0,2.29024-.07571L310.6203,166.143a1.8825,1.8825,0,0,0,.28392-2.66879l-19.47651-23.94341a1.89289,1.89289,0,0,0-2.66121-.29007l-.00757.00615-33.10439,26.934a1.89269,1.89269,0,0,0-.53,2.23346,9.72813,9.72813,0,0,1-1.53313,10.23983,1.89317,1.89317,0,0,0,0,2.42273l3.53947,4.35335a26.4954,26.4954,0,0,1-5.03475,5.11045c-6.47324,4.92117-7.77925,12.64364-7.98745,16.78878a20.57218,20.57218,0,0,0,0,2.21453h-4.54263V192.66053h4.69405a1.89284,1.89284,0,0,0,1.89276-1.89276v-30.5113a1.89285,1.89285,0,0,0-1.89276-1.89276h-7.41962c4.5237-4.59941,2.38489-9.4638.45426-13.66573l-.58675-1.47635c-.3407-.7571-.66246-1.55206-.98423-2.347-1.89276-4.8644-4.41013-10.94016-11.05372-9.8045a41.88013,41.88013,0,0,0-11.03479,3.52053,43.88092,43.88092,0,0,0-10.12626,6.88965,32.87911,32.87911,0,0,1-12.90863,7.41962,5.67825,5.67825,0,0,0-5.14831-3.27447H172.03241a5.67825,5.67825,0,0,0-5.1483,3.27447,32.967,32.967,0,0,1-12.92756-7.43855,43.30707,43.30707,0,0,0-10.10734-6.88965,41.77276,41.77276,0,0,0-11.05372-3.52053c-6.62466-1.11673-9.06632,4.92118-11.03479,9.8045-.32177.795-.64354,1.58992-.98423,2.347l-.58676,1.34386c-1.89276,4.29657-4.06943,9.06632.45426,13.66573h-7.41964a1.89284,1.89284,0,0,0-1.89276,1.89276v30.66272a1.89284,1.89284,0,0,0,1.89276,1.89276h4.69405v97.19324a1.89284,1.89284,0,0,0,1.89276,1.89276H237.67332a.7381.7381,0,0,1,.56783,0h71.16779a1.89284,1.89284,0,0,0,1.89276-1.89276V211.47456a1.89285,1.89285,0,0,0-1.89276-1.89276H249.73021a75.26442,75.26442,0,0,1,15.44491-6.81393A9.70967,9.70967,0,0,0,271.15625,197.58171Zm-12.05689-29.33778,30.587-24.852,17.03484,21.00964L276.191,189.27249a13.53226,13.53226,0,0,0-3.78552-1.41957,42.91788,42.91788,0,0,0-1.58992-7.76031,3.16108,3.16108,0,0,0-.15142-3.78552,3.12267,3.12267,0,0,0-4.39025-.48266c-.01939.01562-.0388.03123-.05773.04733a3.14181,3.14181,0,0,0-1.15459,2.11988,3.18046,3.18046,0,0,0,.70033,2.30917,3.12163,3.12163,0,0,0,1.45742,1.00317,40.43813,40.43813,0,0,1,1.32492,6.284,13.46094,13.46094,0,0,0-4.03157.94638l-7.06-8.68777A13.534,13.534,0,0,0,259.09936,168.24393Zm-67.91224-12.814v-2.74451a35.96357,35.96357,0,0,0,14.76353-8.29029l.03786.09464a41.00478,41.00478,0,0,1,9.31238-6.34075,38.16669,38.16669,0,0,1,10.05056-3.21769c3.25555-.5489,4.67512,1.9874,6.88965,7.571l1.02208,2.46059.62462,1.36279c2.25239,5.01581,3.5016,7.77924-2.06311,11.35656a1.74123,1.74123,0,0,0-.66246.776h-40.8647A5.67727,5.67727,0,0,0,191.18712,155.42994Zm-19.21151-5.90542h13.41967a1.89285,1.89285,0,0,1,1.89276,1.89277v3.78552a1.89285,1.89285,0,0,1-1.89276,1.89276H172.03239a1.89285,1.89285,0,0,1-1.89276-1.89276l-.05678-3.78552A1.89285,1.89285,0,0,1,171.97561,149.52452Zm-48.3411-3.388.60569-1.36279c.35962-.81389.70032-1.6467,1.02209-2.46059,2.23345-5.50793,3.61517-8.04423,6.90857-7.571a38.04864,38.04864,0,0,1,10.03163,3.21769,40.58207,40.58207,0,0,1,9.31238,6.34075,36.10744,36.10744,0,0,0,14.78246,8.38493v2.51737a5.67743,5.67743,0,0,0,.8896,3.02842H126.36009a1.89356,1.89356,0,0,0-.66247-.73818C120.01934,153.93466,121.3632,151.17123,123.63451,146.13649Zm31.647,66.11411H153.3887a1.89276,1.89276,0,0,0,0,3.78552h1.89276v22.23993H153.3887a1.89276,1.89276,0,0,0,0,3.78552h1.89276v22.29671H153.3887a1.89276,1.89276,0,1,0,0,3.78552h1.89276v19.874H121.7039v-19.874h1.49528a1.89276,1.89276,0,0,0,0-3.78552H121.7039V242.06157h1.49528a1.89276,1.89276,0,0,0,0-3.78552H121.7039V216.03612h1.49528a1.89276,1.89276,0,0,0,0-3.78552H121.7039V192.66053h33.57756Zm0-23.37559H115.11709V162.14924h40.16437Zm43.136,99.086-39.35049.05678V192.66052h39.35049Zm0-99.086H159.067V162.14924h39.35049Zm37.36309,23.37559h-1.24923a1.89276,1.89276,0,0,0,0,3.78552h1.24923v22.23993h-1.24923a1.89276,1.89276,0,0,0,0,3.78552h1.24923v22.29671h-1.24923a1.89276,1.89276,0,1,0,0,3.78552h1.24923v19.874H202.203v-19.874h2.25238a1.89276,1.89276,0,0,0,0-3.78552H202.203V242.06157h2.25238a1.89276,1.89276,0,1,0,0-3.78552H202.203V216.03612h2.25238a1.89276,1.89276,0,0,0,0-3.78552H202.203V192.66053h33.57756ZM202.203,188.875V162.14924h40.16437V188.875Zm37.36309,99.086V278.4972L248.216,287.961Zm13.77929,0-12.64364-13.81716a1.89481,1.89481,0,0,0-1.13565-.56783V247.91019L276.22885,287.961Zm28.01286,0-40.65648-44.42309a1.89378,1.89378,0,0,0-1.13566-.58675v-25.6469L304.24171,287.961Zm26.158-74.5369v11.35656l-10.39125-11.35656Zm-15.52065-.05678,14.95281,16.35345a1.90139,1.90139,0,0,0,.56784.39748v25.21156l-38.40411-41.96249Zm-28.01284,0,42.96567,46.95938a1.90152,1.90152,0,0,0,.56783.39748v25.21156l-66.41695-72.56843h22.88345Zm-15.9749-7.17356a17.99849,17.99849,0,0,1,6.37861-12.62471,29.24264,29.24264,0,0,0,5.16724-5.12938l2.877,3.6341a1.89313,1.89313,0,0,0,2.4038.45426,9.46105,9.46105,0,0,1,3.78552-1.15458,11.622,11.622,0,0,1-.94638,4.58048,5.94259,5.94259,0,0,1-3.78552,3.19876A79.04578,79.04578,0,0,0,248.00779,206.19377Z" transform="translate(-111.33157 -130.91621)"/><path d="M223.55333,167.07041h-2.49844a1.89276,1.89276,0,0,0,0,3.78552h2.49844a1.89276,1.89276,0,1,0,0-3.78552Z" transform="translate(-111.33157 -130.91621)"/><path d="M240.09605,167.07041h-2.49844a1.89276,1.89276,0,0,0,0,3.78552h2.49844a1.89276,1.89276,0,1,0,0-3.78552Z" transform="translate(-111.33157 -130.91621)"/><path d="M207.0106,167.07041h-2.49844a1.89276,1.89276,0,1,0,0,3.78552h2.49844a1.89276,1.89276,0,0,0,0-3.78552Z" transform="translate(-111.33157 -130.91621)"/><path d="M215.282,180.07368h-2.49844a1.89276,1.89276,0,0,0,0,3.78552H215.282a1.89276,1.89276,0,1,0,0-3.78552Z" transform="translate(-111.33157 -130.91621)"/><path d="M231.82469,180.07368h-2.49844a1.89276,1.89276,0,1,0,0,3.78552h2.49844a1.89276,1.89276,0,1,0,0-3.78552Z" transform="translate(-111.33157 -130.91621)"/><path d="M136.48635,167.07041h-2.47951a1.89276,1.89276,0,0,0,0,3.78552h2.47951a1.89276,1.89276,0,1,0,0-3.78552Z" transform="translate(-111.33157 -130.91621)"/><path d="M153.048,167.07041h-2.49844a1.89276,1.89276,0,1,0,0,3.78552H153.048a1.89276,1.89276,0,0,0,0-3.78552Z" transform="translate(-111.33157 -130.91621)"/><path d="M119.94363,167.07041h-2.49844a1.89276,1.89276,0,1,0,0,3.78552h2.49844a1.89276,1.89276,0,1,0,0-3.78552Z" transform="translate(-111.33157 -130.91621)"/><path d="M128.215,180.07368h-2.49844a1.89276,1.89276,0,0,0,0,3.78552H128.215a1.89276,1.89276,0,1,0,0-3.78552Z" transform="translate(-111.33157 -130.91621)"/><path d="M144.75772,180.07368H142.2782a1.89276,1.89276,0,0,0,0,3.78552h2.47952a1.89276,1.89276,0,0,0,0-3.78552Z" transform="translate(-111.33157 -130.91621)"/><path d="M131.33805,199.24734h-2.46059a1.89276,1.89276,0,0,0,0,3.78552h2.46059a1.89276,1.89276,0,0,0,0-3.78552Z" transform="translate(-111.33157 -130.91621)"/><path d="M147.54007,199.24734h-2.46058a1.89276,1.89276,0,1,0,0,3.78552h2.46058a1.89276,1.89276,0,1,0,0-3.78552Z" transform="translate(-111.33157 -130.91621)"/><path d="M139.40121,212.2506h-2.46059a1.89276,1.89276,0,0,0,0,3.78552h2.46059a1.89276,1.89276,0,0,0,0-3.78552Z" transform="translate(-111.33157 -130.91621)"/><path d="M131.33805,225.2728h-2.46059a1.89276,1.89276,0,0,0,0,3.78552h2.46059a1.89276,1.89276,0,0,0,0-3.78552Z" transform="translate(-111.33157 -130.91621)"/><path d="M147.54007,225.2728h-2.46058a1.89276,1.89276,0,1,0,0,3.78552h2.46058a1.89276,1.89276,0,0,0,0-3.78552Z" transform="translate(-111.33157 -130.91621)"/><path d="M139.40121,238.27605h-2.46059a1.89276,1.89276,0,0,0,0,3.78552h2.46059a1.89276,1.89276,0,1,0,0-3.78552Z" transform="translate(-111.33157 -130.91621)"/><path d="M131.33805,251.29825h-2.46059a1.89276,1.89276,0,0,0,0,3.78552h2.46059a1.89276,1.89276,0,0,0,0-3.78552Z" transform="translate(-111.33157 -130.91621)"/><path d="M147.54007,251.29825h-2.46058a1.89276,1.89276,0,1,0,0,3.78552h2.46058a1.89276,1.89276,0,1,0,0-3.78552Z" transform="translate(-111.33157 -130.91621)"/><path d="M139.40121,264.3583h-2.46059a1.89276,1.89276,0,0,0,0,3.78552h2.46059a1.89276,1.89276,0,0,0,0-3.78552Z" transform="translate(-111.33157 -130.91621)"/><path d="M131.33805,277.3237h-2.46059a1.89276,1.89276,0,1,0,0,3.78552h2.46059a1.89276,1.89276,0,0,0,0-3.78552Z" transform="translate(-111.33157 -130.91621)"/><path d="M147.54007,277.3237h-2.46058a1.89276,1.89276,0,1,0,0,3.78552h2.46058a1.89276,1.89276,0,1,0,0-3.78552Z" transform="translate(-111.33157 -130.91621)"/><path d="M212.59425,199.24734h-2.46059a1.89276,1.89276,0,1,0,0,3.78552h2.46059a1.89276,1.89276,0,1,0,0-3.78552Z" transform="translate(-111.33157 -130.91621)"/><path d="M228.92877,199.24734h-2.46059a1.89276,1.89276,0,1,0,0,3.78552h2.46059a1.89276,1.89276,0,1,0,0-3.78552Z" transform="translate(-111.33157 -130.91621)"/><path d="M220.7899,212.2506h-2.51737a1.89276,1.89276,0,1,0,0,3.78552h2.51737a1.89276,1.89276,0,0,0,0-3.78552Z" transform="translate(-111.33157 -130.91621)"/><path d="M212.59425,225.2728h-2.46059a1.89276,1.89276,0,1,0,0,3.78552h2.46059a1.89276,1.89276,0,0,0,0-3.78552Z" transform="translate(-111.33157 -130.91621)"/><path d="M228.92877,225.2728h-2.46059a1.89276,1.89276,0,1,0,0,3.78552h2.46059a1.89276,1.89276,0,0,0,0-3.78552Z" transform="translate(-111.33157 -130.91621)"/><path d="M220.7899,238.27605h-2.51737a1.89276,1.89276,0,1,0,0,3.78552h2.51737a1.89276,1.89276,0,1,0,0-3.78552Z" transform="translate(-111.33157 -130.91621)"/><path d="M212.59425,251.29825h-2.46059a1.89276,1.89276,0,1,0,0,3.78552h2.46059a1.89276,1.89276,0,1,0,0-3.78552Z" transform="translate(-111.33157 -130.91621)"/><path d="M228.92877,251.29825h-2.46059a1.89276,1.89276,0,1,0,0,3.78552h2.46059a1.89276,1.89276,0,1,0,0-3.78552Z" transform="translate(-111.33157 -130.91621)"/><path d="M220.7899,264.3583h-2.51737a1.89276,1.89276,0,1,0,0,3.78552h2.51737a1.89276,1.89276,0,0,0,0-3.78552Z" transform="translate(-111.33157 -130.91621)"/><path d="M212.59425,277.3237h-2.46059a1.89276,1.89276,0,1,0,0,3.78552h2.46059a1.89276,1.89276,0,0,0,0-3.78552Z" transform="translate(-111.33157 -130.91621)"/><path d="M228.92877,277.3237h-2.46059a1.89276,1.89276,0,1,0,0,3.78552h2.46059a1.89276,1.89276,0,0,0,0-3.78552Z" transform="translate(-111.33157 -130.91621)"/></svg>