<svg id="Layer_1" height="512" viewBox="0 0 128 128" width="512" xmlns="http://www.w3.org/2000/svg" data-name="Layer 1"><path d="m120.08 3.41h-92.08a1 1 0 0 0 0 2h92.08a5.42 5.42 0 0 1 5.42 5.41v61.55h-5.43v-23.69a5.66 5.66 0 0 0 -4.5-5.53v-9.27a20.25 20.25 0 0 0 -31.57-16.79 1 1 0 0 0 1.12 1.66 18.24 18.24 0 0 1 28.43 15.13v9.16h-4v-9.16a14.29 14.29 0 1 0 -28.57 0v9.12h-4v-9.16a18.28 18.28 0 0 1 2.2-8.7 1 1 0 0 0 -1.76-.95 20.21 20.21 0 0 0 -2.44 9.64v9.28a5.66 5.66 0 0 0 -4.5 5.53v25a5.65 5.65 0 0 0 5.64 5.64h38.25a5.65 5.65 0 0 0 5.63-4.91h5.48v12.09a5.42 5.42 0 0 1 -5.42 5.41h-112.13a5.42 5.42 0 0 1 -5.42-5.41v-12.09h63.2a1 1 0 0 0 0-2h-54.58v-10.37a1 1 0 0 0 -2 0v10.37h-6.62v-61.55a5.42 5.42 0 0 1 5.42-5.41h11.88a1 1 0 0 0 0-2h-11.88a7.42 7.42 0 0 0 -7.42 7.41v62.51s0 0 0 0v13a7.43 7.43 0 0 0 7.42 7.41h44.21c-.47 12.36-9.71 23.51-22.82 27.34a1.7 1.7 0 0 0 -1.32 2.01 1.79 1.79 0 0 0 1.82 1.5h68.33a1.79 1.79 0 0 0 1.82-1.5 1.71 1.71 0 0 0 -1.28-1.88c-13.11-3.83-22.35-15-22.83-27.34h44.22a7.43 7.43 0 0 0 7.42-7.41v-75.64a7.42 7.42 0 0 0 -7.42-7.41zm-37.08 30.47a12.29 12.29 0 1 1 24.57 0v9.12h-24.57zm35.05 39.76a3.64 3.64 0 0 1 -3.64 3.64h-38.23a3.64 3.64 0 0 1 -3.64-3.64v-4.74h9.46a1 1 0 1 0 0-2h-9.46v-4.74h9.46a1 1 0 1 0 0-2h-9.46v-4.74h9.46a1 1 0 0 0 0-2h-9.46v-4.74a3.64 3.64 0 0 1 3.64-3.68h38.25a3.64 3.64 0 0 1 3.64 3.64v4.74h-9.48a1 1 0 0 0 0 2h9.48v4.74h-9.48a1 1 0 0 0 0 2h9.48v4.78h-9.48a1 1 0 0 0 0 2h9.48zm-21.62 49h-64.87a35.66 35.66 0 0 0 10.19-5.52h16.4a1 1 0 1 0 0-2h-14a30.66 30.66 0 0 0 10-21.2h19.71c.46 12.66 9.52 24.16 22.59 28.67z"/><path d="m69 12.3a1 1 0 0 0 0-2h-10a1 1 0 0 0 0 2z"/><path d="m9.13 26.05v28.95a1 1 0 0 0 2 0v-28.95a1 1 0 0 0 -2 0z"/><path d="m95.31 53.42a1 1 0 0 0 -1 1v13.48a1 1 0 0 0 2 0v-13.48a1 1 0 0 0 -1-1z"/><path d="m64 79.48a3.47 3.47 0 1 0 3.47 3.52 3.48 3.48 0 0 0 -3.47-3.52zm0 4.94a1.47 1.47 0 1 1 1.47-1.42 1.47 1.47 0 0 1 -1.47 1.42z"/><path d="m41.56 27.49a16.55 16.55 0 1 0 16.56 16.51 17.05 17.05 0 0 0 -.63-4.55 1 1 0 0 0 -1.93.55 14.54 14.54 0 1 1 -4.45-7 1 1 0 0 0 1.41 0 1 1 0 0 0 -.1-1.42 16.57 16.57 0 0 0 -10.86-4.09z"/><path d="m36 41.57a1 1 0 0 0 -1.4 1.43l6.25 6.41a1 1 0 0 0 .71.3 1 1 0 0 0 .71-.29l17.8-17.8a1 1 0 0 0 0-1.42 1 1 0 0 0 -1.41 0l-17.09 17.05z"/></svg>