<?xml version="1.0" encoding="iso-8859-1"?>
<!-- Generator: Adobe Illustrator 19.0.0, SVG Export Plug-In . SVG Version: 6.00 Build 0)  -->
<svg version="1.1" id="Capa_1" xmlns="http://www.w3.org/2000/svg" xmlns:xlink="http://www.w3.org/1999/xlink" x="0px" y="0px"
	 viewBox="0 0 455.04 455.04" style="enable-background:new 0 0 455.04 455.04;" xml:space="preserve">
<g>
	<g>
		<path d="M448.88,430.28H22.6V4c0-2.209-1.791-4-4-4c-2.209,0-4,1.791-4,4v34.68H6.16c-2.209,0-4,1.791-4,4c0,2.209,1.791,4,4,4
			h8.44v89.92H6.16c-2.209,0-4,1.791-4,4c0,2.209,1.791,4,4,4h8.44v89.88H6.16c-2.209,0-4,1.791-4,4c0,2.209,1.791,4,4,4h8.44v89.88
			H6.16c-2.209,0-4,1.791-4,4c0,2.209,1.791,4,4,4h8.44v89.92H6.16c-2.209,0-4,1.791-4,4c0,2.209,1.791,4,4,4h8.52
			c-0.023,0.119-0.023,0.241,0,0.36v12.4c0,2.209,1.791,4,4,4c2.209,0,4-1.791,4-4v-12.4c0,0,0-0.24,0-0.36h89.88c0,0,0,0,0,0.36
			v12.4c0,2.209,1.791,4,4,4c2.209,0,4-1.791,4-4v-12.4c0.023-0.119,0.023-0.241,0-0.36h89.88c0,0,0,0,0,0.36v12.4
			c0,2.209,1.791,4,4,4c2.209,0,4-1.791,4-4v-12.4c0,0,0-0.24,0-0.36h89.92c-0.023,0.119-0.023,0.241,0,0.36v12.4
			c0,2.209,1.791,4,4,4c2.209,0,4-1.791,4-4v-12.4c0,0,0-0.24,0-0.36h90.04c0,0,0,0,0,0.36v12.4c0,2.209,1.791,4,4,4
			c2.209,0,4-1.791,4-4v-12.4c0,0,0-0.24,0-0.36h34.76c2.099-0.147,3.725-1.896,3.72-4C452.88,432.071,451.089,430.28,448.88,430.28
			z"/>
	</g>
</g>
<g>
	<g>
		<path d="M96.68,292H68.4c-2.209,0-4,1.791-4,4v96.32c0,2.209,1.791,4,4,4h28.28c2.209,0,4-1.791,4-4V296
			C100.68,293.791,98.889,292,96.68,292z M92.68,388.32H72.4V300h20.28V388.32z"/>
	</g>
</g>
<g>
	<g>
		<path d="M156.24,248.64h-28.28c-2.209,0-4,1.791-4,4v139.68c0,2.209,1.791,4,4,4h28.28c2.209,0,4-1.791,4-4V252.64
			C160.24,250.431,158.449,248.64,156.24,248.64z M152.24,388.32h-20.28V256.64h20.28V388.32z"/>
	</g>
</g>
<g>
	<g>
		<path d="M334.92,248.64h-28.28c-2.209,0-4,1.791-4,4v139.68c0,2.209,1.791,4,4,4h28.28c2.209,0,4-1.791,4-4V252.64
			C338.92,250.431,337.129,248.64,334.92,248.64z M330.92,388.32h-20.28V256.64h20.28V388.32z"/>
	</g>
</g>
<g>
	<g>
		<path d="M275.52,199.52h-28.44c-2.209,0-4,1.791-4,4v188.8c0,2.209,1.791,4,4,4h28.44c2.209,0,4-1.791,4-4v-188.8
			C279.52,201.311,277.729,199.52,275.52,199.52z M271.52,388.32h-20.44v-180.8h20.44V388.32z"/>
	</g>
</g>
<g>
	<g>
		<path d="M394.48,142.32H366.2c-2.209,0-4,1.791-4,4v246c0,2.209,1.791,4,4,4h28.28c2.209,0,4-1.791,4-4v-246
			C398.48,144.111,396.689,142.32,394.48,142.32z M390.48,388.32H370.2v-238h20.28V388.32z"/>
	</g>
</g>
<g>
	<g>
		<path d="M215.8,261.8h-28.28c-2.209,0-4,1.791-4,4v126.52c0,2.209,1.791,4,4,4h28.28c2.209,0,4-1.791,4-4V265.8
			C219.8,263.591,218.009,261.8,215.8,261.8z M211.8,388.32h-20.28V269.8h20.28V388.32z"/>
	</g>
</g>
<g>
	<g>
		<path d="M425.8,22.08c0.018-0.173,0.018-0.347,0-0.52c-0.097-0.188-0.218-0.363-0.36-0.52c-0.14-0.274-0.315-0.53-0.52-0.76
			L424.4,20c-0.228-0.197-0.484-0.359-0.76-0.48c-0.282-0.108-0.579-0.176-0.88-0.2c0,0-0.36,0-0.6,0H383c-2.209,0-4,1.791-4,4
			c0,2.209,1.791,4,4,4h29.96L306.28,140.84l-37.08-30.32c-1.627-1.326-4.002-1.169-5.44,0.36l-76.68,81.04l-35.56-26.88
			c-1.558-1.179-3.739-1.061-5.16,0.28L41.92,262.88c-1.608,1.505-1.697,4.025-0.2,5.64c1.556,1.568,4.088,1.579,5.657,0.023
			c0.008-0.008,0.016-0.015,0.023-0.023l102.04-95.04l35.64,27c1.626,1.231,3.918,1.042,5.32-0.44l76.6-80.96l37.08,30.32
			c1.633,1.351,4.037,1.193,5.48-0.36L417.8,33.24v29.04c0,2.209,1.791,4,4,4c2.209,0,4-1.791,4-4v-39.2
			C425.842,22.748,425.842,22.412,425.8,22.08z"/>
	</g>
</g>
<g>
</g>
<g>
</g>
<g>
</g>
<g>
</g>
<g>
</g>
<g>
</g>
<g>
</g>
<g>
</g>
<g>
</g>
<g>
</g>
<g>
</g>
<g>
</g>
<g>
</g>
<g>
</g>
<g>
</g>
</svg>
