<?xml version="1.0" encoding="iso-8859-1"?>
<!-- Generator: Adobe Illustrator 19.0.0, SVG Export Plug-In . SVG Version: 6.00 Build 0)  -->
<svg version="1.1" id="Capa_1" xmlns="http://www.w3.org/2000/svg" xmlns:xlink="http://www.w3.org/1999/xlink" x="0px" y="0px"
	 viewBox="0 0 395.24 395.24" style="enable-background:new 0 0 395.24 395.24;" xml:space="preserve">
<g>
	<g>
		<path d="M197.496,77.92c-83.285-0.022-150.818,67.475-150.84,150.76c0,0.027,0,0.053,0,0.08
			c0.11,83.217,67.543,150.65,150.76,150.76c83.285,0.022,150.818-67.475,150.84-150.76S280.78,77.942,197.496,77.92z
			 M197.496,371.56c-78.866,0.022-142.818-63.894-142.84-142.76c0-0.013,0-0.027,0-0.04c0.066-78.823,63.937-142.712,142.76-142.8
			c78.866-0.022,142.818,63.894,142.84,142.76S276.362,371.538,197.496,371.56z"/>
	</g>
</g>
<g>
	<g>
		<path d="M310.136,106.32l15.4-23.52c1.197-1.846,0.679-4.312-1.16-5.52l-10.2-6.92c-0.277-0.671-0.752-1.243-1.36-1.64
			c-0.613-0.38-1.318-0.588-2.04-0.6l-18.88-12.32c-1.846-1.197-4.312-0.679-5.52,1.16l-14.88,22.72
			c-15.946-8.038-33.087-13.441-50.76-16c0.023-0.226,0.023-0.454,0-0.68V35.68h8.88c9.689-0.022,17.538-7.871,17.56-17.56v-0.56
			c-0.022-9.689-7.871-17.538-17.56-17.56h-64.56c-9.689,0.022-17.538,7.871-17.56,17.56v0.68c0.022,9.689,7.871,17.538,17.56,17.56
			h8.88v27.52c-0.023,0.226-0.023,0.454,0,0.68C82.941,77.181,19.86,161.632,33.041,252.626
			c11.838,81.726,81.796,142.422,164.374,142.614c91.9,0.069,166.456-74.375,166.524-166.276
			C363.975,182.351,344.457,137.861,310.136,106.32z M290.856,64.68l13.88,9.08l-6.52,10c-1.218,1.843-0.71,4.325,1.133,5.542
			c0.009,0.006,0.018,0.012,0.027,0.018c0.644,0.416,1.394,0.638,2.16,0.64c1.352,0.007,2.616-0.671,3.36-1.8l6.56-10.04l5.32,3.48
			l-12.68,19.4c-7.94-6.618-16.469-12.496-25.48-17.56L290.856,64.68z M165.056,27.8c-5.28,0-9.56-4.279-9.561-9.559
			c0-0.04,0-0.081,0.001-0.121v-0.56c0-5.28,4.28-9.56,9.56-9.56h9.6v8c0,2.209,1.791,4,4,4c2.209,0,4-1.791,4-4V8h12v8
			c0.004,2.209,1.799,3.997,4.008,3.992c2.203-0.004,3.988-1.789,3.992-3.992V8h12v8c0,2.209,1.791,4,4,4c2.209,0,4-1.791,4-4V8
			h7.04c5.28-0.044,9.595,4.2,9.64,9.48c0,0.027,0,0.054,0,0.08v0.68c0,5.28-4.28,9.56-9.56,9.56H165.056z M202.536,55.08
			c2.209,0,4-1.791,4-4v-15.4h6.36v27.28c-5.12-0.44-10.24-0.72-15.48-0.72s-10.36,0.28-15.48,0.72V35.68h16.6v15.4
			C198.536,53.289,200.327,55.08,202.536,55.08z M197.416,387.28c-87.548,0-158.52-70.972-158.52-158.52
			c0.088-87.512,71.008-158.432,158.52-158.52c87.548,0,158.52,70.972,158.52,158.52S284.964,387.28,197.416,387.28z"/>
	</g>
</g>
<g>
	<g>
		<path d="M197.416,92.52c-74.934,0-135.68,60.746-135.68,135.68c0.176,74.861,60.819,135.504,135.68,135.68
			c74.934,0,135.68-60.746,135.68-135.68S272.35,92.52,197.416,92.52z M197.416,355.88c-70.516,0-127.68-57.164-127.68-127.68
			c0.176-70.443,57.237-127.504,127.68-127.68c70.516,0,127.68,57.164,127.68,127.68S267.931,355.88,197.416,355.88z"/>
	</g>
</g>
<g>
	<g>
		<path d="M270.216,165.32c1.591-1.535,1.635-4.069,0.1-5.66c-1.535-1.591-4.069-1.635-5.66-0.1l-56.56,54.72
			c-0.311,0.315-0.568,0.68-0.76,1.08c-7.113-5.463-17.309-4.125-22.772,2.989s-4.125,17.309,2.989,22.772
			c2.829,2.173,6.296,3.354,9.863,3.36c8.834,0.221,16.174-6.761,16.395-15.595c0.069-2.759-0.577-5.489-1.875-7.925
			c0.633-0.178,1.22-0.492,1.72-0.92L270.216,165.32z M197.416,236.48c-4.573,0-8.28-3.707-8.28-8.28c0-4.573,3.707-8.28,8.28-8.28
			s8.28,3.707,8.28,8.28C205.696,232.773,201.989,236.48,197.416,236.48z"/>
	</g>
</g>
<g>
	<g>
		<circle cx="199.496" cy="338.16" r="5.56"/>
	</g>
</g>
<g>
	<g>
		<circle cx="255.136" cy="323.32" r="5.56"/>
	</g>
</g>
<g>
	<g>
		<path d="M295.936,273.24c-3.092-0.066-5.652,2.387-5.719,5.479c-0.066,3.092,2.387,5.652,5.479,5.719
			c3.092,0.066,5.652-2.387,5.719-5.479c0.001-0.04,0.001-0.079,0.001-0.119C301.416,275.793,298.982,273.305,295.936,273.24z"/>
	</g>
</g>
<g>
	<g>
		<path d="M306.936,217.561c-3.061,0.044-5.52,2.537-5.52,5.599c0,3.093,2.507,5.6,5.599,5.601c0.027,0,0.054,0,0.081-0.001
			c3.092-0.044,5.564-2.587,5.519-5.679S310.028,217.517,306.936,217.561z"/>
	</g>
</g>
<g>
	<g>
		<path d="M296.015,173.04c-3.093-0.022-5.618,2.467-5.64,5.56c0,0.027,0,0.053,0,0.08c0,3.071,2.489,5.56,5.56,5.56
			c3.093,0.022,5.618-2.467,5.64-5.56S299.108,173.062,296.015,173.04z"/>
	</g>
</g>
<g>
	<g>
		<path d="M254.816,128.605c-3.006,0.087-5.399,2.548-5.4,5.555c-0.001,3.071,2.487,5.561,5.558,5.562
			c0.054,0,0.108-0.001,0.162-0.002c3.069-0.088,5.486-2.648,5.398-5.718C260.445,130.933,257.885,128.516,254.816,128.605z"/>
	</g>
</g>
<g>
	<g>
		<path d="M139.858,317.758c-0.054,0-0.108,0.001-0.162,0.002c-3.069,0.088-5.486,2.648-5.398,5.718
			c0.088,3.069,2.648,5.486,5.718,5.398c3.006-0.087,5.399-2.548,5.4-5.555C145.417,320.249,142.929,317.759,139.858,317.758z"/>
	</g>
</g>
<g>
	<g>
		<path d="M99.135,273.203c-3.092-0.066-5.652,2.387-5.719,5.479c-0.001,0.053-0.002,0.106-0.001,0.159
			c0,3.04,2.441,5.516,5.48,5.56c3.092,0.066,5.652-2.387,5.719-5.479C104.68,275.829,102.228,273.269,99.135,273.203z"/>
	</g>
</g>
<g>
	<g>
		<path d="M87.816,217.56c-3.093-0.022-5.618,2.467-5.64,5.56c0,0.013,0,0.027,0,0.04c0,3.077,2.483,5.578,5.56,5.6
			c3.093,0.022,5.618-2.467,5.64-5.56S90.908,217.582,87.816,217.56z"/>
	</g>
</g>
<g>
	<g>
		<path d="M99.135,173.043c-3.092-0.066-5.652,2.387-5.719,5.479c-0.001,0.053-0.002,0.106-0.001,0.159
			c0,3.04,2.441,5.516,5.48,5.56c3.092,0.066,5.652-2.387,5.719-5.479C104.68,175.669,102.228,173.109,99.135,173.043z"/>
	</g>
</g>
<g>
	<g>
		<circle cx="139.696" cy="134.16" r="5.56"/>
	</g>
</g>
<g>
	<g>
		<circle cx="199.496" cy="119.32" r="5.56"/>
	</g>
</g>
<g>
	<g>
		<path d="M199.416,133.2c-2.209,0-4,1.791-4,4v25.48c0,2.209,1.791,4,4,4c2.209,0,4-1.791,4-4V137.2
			C203.416,134.991,201.625,133.2,199.416,133.2z"/>
	</g>
</g>
<g>
	<g>
		<path d="M286.416,219.2h-29c-2.209,0-4,1.791-4,4c0,2.209,1.791,4,4,4h29c2.209,0,4-1.791,4-4
			C290.416,220.991,288.625,219.2,286.416,219.2z"/>
	</g>
</g>
<g>
	<g>
		<path d="M199.416,293.2c-2.209,0-4,1.791-4,4v22.48c0,2.209,1.791,4,4,4c2.209,0,4-1.791,4-4V297.2
			C203.416,294.991,201.625,293.2,199.416,293.2z"/>
	</g>
</g>
<g>
	<g>
		<path d="M131.936,220.68h-24.52c-2.209,0-4,1.791-4,4c0,2.209,1.791,4,4,4h24.52c2.209,0,4-1.791,4-4
			C135.936,222.471,134.145,220.68,131.936,220.68z"/>
	</g>
</g>
<g>
</g>
<g>
</g>
<g>
</g>
<g>
</g>
<g>
</g>
<g>
</g>
<g>
</g>
<g>
</g>
<g>
</g>
<g>
</g>
<g>
</g>
<g>
</g>
<g>
</g>
<g>
</g>
<g>
</g>
</svg>
