<?xml version="1.0"?>
<svg xmlns="http://www.w3.org/2000/svg" xmlns:xlink="http://www.w3.org/1999/xlink" xmlns:svgjs="http://svgjs.com/svgjs" version="1.1" width="512" height="512" x="0" y="0" viewBox="0 0 128 128" style="enable-background:new 0 0 512 512" xml:space="preserve"><g><path xmlns="http://www.w3.org/2000/svg" d="m85.05 55.47a1 1 0 0 0 1-1v-9.65a1 1 0 0 0 -2 0v8.65h-8.65a1 1 0 0 0 0 2z" fill="#f9aa33" data-original="#000000" style=""/><path xmlns="http://www.w3.org/2000/svg" d="m31.9 53.47v-8.65a1 1 0 0 0 -2 0v9.65a1 1 0 0 0 1 1h9.65a1 1 0 0 0 0-2z" fill="#f9aa33" data-original="#000000" style=""/><path xmlns="http://www.w3.org/2000/svg" d="m41.55 4.33a1 1 0 0 0 -1-1h-9.65a1 1 0 0 0 -1 1v9.67a1 1 0 0 0 2 0v-8.67h8.65a1 1 0 0 0 1-1z" fill="#f9aa33" data-original="#000000" style=""/><path xmlns="http://www.w3.org/2000/svg" d="m85.05 3.33h-9.65a1 1 0 0 0 0 2h8.65v8.67a1 1 0 0 0 2 0v-9.67a1 1 0 0 0 -1-1z" fill="#f9aa33" data-original="#000000" style=""/><path xmlns="http://www.w3.org/2000/svg" d="m68.72 41.65a1 1 0 0 0 1.28 1.52 17.7 17.7 0 0 0 6.21-13.48 1 1 0 1 0 -2 0 15.71 15.71 0 0 1 -5.49 11.96z" fill="#f9aa33" data-original="#000000" style=""/><path xmlns="http://www.w3.org/2000/svg" d="m58.5 12a17.76 17.76 0 0 0 -17.74 17.69 1 1 0 1 0 2 0 15.74 15.74 0 0 1 29.31-8 1 1 0 1 0 1.72-1 17.8 17.8 0 0 0 -15.29-8.69z" fill="#f9aa33" data-original="#000000" style=""/><path xmlns="http://www.w3.org/2000/svg" d="m42 32.56a1 1 0 0 0 -.75 1.2 17.73 17.73 0 0 0 4.75 8.47 1 1 0 0 0 1.41 0 1 1 0 0 0 0-1.41 15.82 15.82 0 0 1 -4.19-7.51 1 1 0 0 0 -1.22-.75z" fill="#f9aa33" data-original="#000000" style=""/><path xmlns="http://www.w3.org/2000/svg" d="m68.43 35.23a1 1 0 0 0 .4.09 1 1 0 0 0 .92-.59 12.32 12.32 0 1 0 -23.57-5 1 1 0 1 0 2 0 10.32 10.32 0 1 1 20.64 0 10.19 10.19 0 0 1 -.9 4.22 1 1 0 0 0 .51 1.28z" fill="#f9aa33" data-original="#000000" style=""/><path xmlns="http://www.w3.org/2000/svg" d="m91.93 66.1a6.55 6.55 0 0 0 -4.46 1.75 6.59 6.59 0 0 0 -6.47-5.34 6.75 6.75 0 0 0 -5 2.17 6.55 6.55 0 0 0 -10.16-3.55v-30.84a7.42 7.42 0 0 0 -12.69-5.23 7.34 7.34 0 0 0 -2.15 5.27l.24 50.93-8.33-16.21a7.2 7.2 0 0 0 -13.12 5.71l7.88 25.95c2.66 11 11.68 18.5 13.76 20.11v6.85a1 1 0 0 0 2 0v-7.34a1 1 0 0 0 -.42-.81c-.1-.08-10.62-7.82-13.42-19.33l-7.89-26a5.21 5.21 0 0 1 9.46-4.19l10.24 19.88a1 1 0 0 0 1.13.51 1 1 0 0 0 .76-1l-.29-55.07a5.43 5.43 0 0 1 5.42-5.45 5.43 5.43 0 0 1 5.43 5.42v41.05a1 1 0 0 0 2 0v-7.34a4.58 4.58 0 0 1 8.42 2.51v7.71a1 1 0 0 0 2 0v-5.12a4.71 4.71 0 0 1 4.73-4.59 4.6 4.6 0 0 1 4.6 4.59v8a1 1 0 0 0 2 0v-5.9a4.54 4.54 0 0 1 4.33-3.1 4.6 4.6 0 0 1 4.59 4.59v31.2c0 2.92-4.22 10.31-5.84 12.92a1 1 0 0 0 -.15.53v6.33a1 1 0 0 0 2 0v-6c1.08-1.76 6-9.94 6-13.73v-31.25a6.6 6.6 0 0 0 -6.6-6.59z" fill="#f9aa33" data-original="#000000" style=""/></g></svg>
